# xmcd
#
# Track frame offsets:
#	150
#	16616
#	34630
#	57561
#	75641
#	93868
#	112908
#	130112
#	148342
#	165036
#	184475
#	200446
#
# Disc length: 2924 seconds
#
# Revision: 1
# Processed by: cddbd v1.5.2PL0 Copyright (c) Steve Scherf et al.
# Submitted via: audiograbber 1.83.01
#
DISCID=930b6a0c
DTITLE=Various Artist - CB60463
DYEAR=2011
DGENRE=Country
TTITLE0=Janedear Girls - Shotgun Girl
TTITLE1=Emerson Drive - Let Your Love Speak
TTITLE2=Little Big Town - The Reason Why
TTITLE3=Jason Aldean - Dirt Road Anthem
TTITLE4=Eric Church - Homeboy
TTITLE5=Tim McGraw and Gwyneth Paltrow - Me And Tennesee
TTITLE6=Frankie Ballard - A Buncha Girls
TTITLE7=Justin Bieber and Rascal Flatts - That Should be me
TTITLE8=Carter's Cord - A Little Less Comfortable
TTITLE9=Jeff Bates - One Day Closer
TTITLE10=Eli Young Band - Crazy Girl
TTITLE11=Jessica Ridley - Faming Red
EXTD=
EXTT0=
EXTT1=
EXTT2=
EXTT3=
EXTT4=
EXTT5=
EXTT6=
EXTT7=
EXTT8=
EXTT9=
EXTT10=
EXTT11=
PLAYORDER=
